<svg id="visual" viewBox="0 0 900 675" width="900" height="675" xmlns="http://www.w3.org/2000/svg" xmlns:xlink="http://www.w3.org/1999/xlink" version="1.1"><g transform="translate(475.97694745180297 318.4794379140561)"><path d="M213.4 -276.4C273.9 -249.7 318.6 -183.9 330 -115.2C341.4 -46.5 319.6 25.1 291.7 89.8C263.9 154.6 230.1 212.4 180.5 259.6C130.9 306.8 65.4 343.4 12.1 326.8C-41.3 310.2 -82.7 240.4 -147 198C-211.4 155.6 -298.7 140.5 -345 90.4C-391.2 40.2 -396.2 -45.1 -366.3 -113.5C-336.5 -181.8 -271.7 -233.3 -204.8 -257.9C-137.9 -282.5 -69 -280.3 3.7 -285.4C76.4 -290.5 152.8 -303 213.4 -276.4" fill="#00ff00"></path></g></svg>