<svg id="visual" viewBox="0 0 960 300" width="960" height="300" xmlns="http://www.w3.org/2000/svg"
    xmlns:xlink="http://www.w3.org/1999/xlink" version="1.1">
    <path
        d="M0 202L22.8 202.3C45.7 202.7 91.3 203.3 137 205.8C182.7 208.3 228.3 212.7 274 208.2C319.7 203.7 365.3 190.3 411.2 191.3C457 192.3 503 207.7 548.8 212.2C594.7 216.7 640.3 210.3 686 203.7C731.7 197 777.3 190 823 193.3C868.7 196.7 914.3 210.3 937.2 217.2L960 224L960 301L937.2 301C914.3 301 868.7 301 823 301C777.3 301 731.7 301 686 301C640.3 301 594.7 301 548.8 301C503 301 457 301 411.2 301C365.3 301 319.7 301 274 301C228.3 301 182.7 301 137 301C91.3 301 45.7 301 22.8 301L0 301Z"
        fill="#00ff33"></path>
    <path
        d="M0 227L22.8 224.7C45.7 222.3 91.3 217.7 137 216.8C182.7 216 228.3 219 274 216.3C319.7 213.7 365.3 205.3 411.2 207.5C457 209.7 503 222.3 548.8 225.3C594.7 228.3 640.3 221.7 686 218.8C731.7 216 777.3 217 823 217.5C868.7 218 914.3 218 937.2 218L960 218L960 301L937.2 301C914.3 301 868.7 301 823 301C777.3 301 731.7 301 686 301C640.3 301 594.7 301 548.8 301C503 301 457 301 411.2 301C365.3 301 319.7 301 274 301C228.3 301 182.7 301 137 301C91.3 301 45.7 301 22.8 301L0 301Z"
        fill="#04ec31"></path>
    <path
        d="M0 233L22.8 236.2C45.7 239.3 91.3 245.7 137 246.3C182.7 247 228.3 242 274 238C319.7 234 365.3 231 411.2 233.5C457 236 503 244 548.8 244.2C594.7 244.3 640.3 236.7 686 232.2C731.7 227.7 777.3 226.3 823 225.3C868.7 224.3 914.3 223.7 937.2 223.3L960 223L960 301L937.2 301C914.3 301 868.7 301 823 301C777.3 301 731.7 301 686 301C640.3 301 594.7 301 548.8 301C503 301 457 301 411.2 301C365.3 301 319.7 301 274 301C228.3 301 182.7 301 137 301C91.3 301 45.7 301 22.8 301L0 301Z"
        fill="#08da2f"></path>
    <path
        d="M0 259L22.8 257C45.7 255 91.3 251 137 252.5C182.7 254 228.3 261 274 264.3C319.7 267.7 365.3 267.3 411.2 265.3C457 263.3 503 259.7 548.8 259C594.7 258.3 640.3 260.7 686 262C731.7 263.3 777.3 263.7 823 260.7C868.7 257.7 914.3 251.3 937.2 248.2L960 245L960 301L937.2 301C914.3 301 868.7 301 823 301C777.3 301 731.7 301 686 301C640.3 301 594.7 301 548.8 301C503 301 457 301 411.2 301C365.3 301 319.7 301 274 301C228.3 301 182.7 301 137 301C91.3 301 45.7 301 22.8 301L0 301Z"
        fill="#0bc82d"></path>
    <path
        d="M0 269L22.8 268.7C45.7 268.3 91.3 267.7 137 268C182.7 268.3 228.3 269.7 274 271.3C319.7 273 365.3 275 411.2 276.3C457 277.7 503 278.3 548.8 275.8C594.7 273.3 640.3 267.7 686 267.8C731.7 268 777.3 274 823 277.3C868.7 280.7 914.3 281.3 937.2 281.7L960 282L960 301L937.2 301C914.3 301 868.7 301 823 301C777.3 301 731.7 301 686 301C640.3 301 594.7 301 548.8 301C503 301 457 301 411.2 301C365.3 301 319.7 301 274 301C228.3 301 182.7 301 137 301C91.3 301 45.7 301 22.8 301L0 301Z"
        fill="#0eb72a"></path>
</svg>