<svg id="visual" viewBox="0 0 960 600" width="960" height="600" xmlns="http://www.w3.org/2000/svg"
    xmlns:xlink="http://www.w3.org/1999/xlink" version="1.1">
    <path
        d="M0 157L22.8 161.5C45.7 166 91.3 175 137 177.5C182.7 180 228.3 176 274 169C319.7 162 365.3 152 411.2 154.3C457 156.7 503 171.3 548.8 177.2C594.7 183 640.3 180 686 179.7C731.7 179.3 777.3 181.7 823 176C868.7 170.3 914.3 156.7 937.2 149.8L960 143L960 301L937.2 301C914.3 301 868.7 301 823 301C777.3 301 731.7 301 686 301C640.3 301 594.7 301 548.8 301C503 301 457 301 411.2 301C365.3 301 319.7 301 274 301C228.3 301 182.7 301 137 301C91.3 301 45.7 301 22.8 301L0 301Z"
        fill="#00ff33"></path>
    <path
        d="M0 178L22.8 177.7C45.7 177.3 91.3 176.7 137 182.8C182.7 189 228.3 202 274 207.2C319.7 212.3 365.3 209.7 411.2 207.2C457 204.7 503 202.3 548.8 202.7C594.7 203 640.3 206 686 203.7C731.7 201.3 777.3 193.7 823 187.3C868.7 181 914.3 176 937.2 173.5L960 171L960 301L937.2 301C914.3 301 868.7 301 823 301C777.3 301 731.7 301 686 301C640.3 301 594.7 301 548.8 301C503 301 457 301 411.2 301C365.3 301 319.7 301 274 301C228.3 301 182.7 301 137 301C91.3 301 45.7 301 22.8 301L0 301Z"
        fill="#05e630"></path>
    <path
        d="M0 216L22.8 220.3C45.7 224.7 91.3 233.3 137 235.5C182.7 237.7 228.3 233.3 274 227.8C319.7 222.3 365.3 215.7 411.2 212.5C457 209.3 503 209.7 548.8 211.3C594.7 213 640.3 216 686 218.8C731.7 221.7 777.3 224.3 823 226.7C868.7 229 914.3 231 937.2 232L960 233L960 301L937.2 301C914.3 301 868.7 301 823 301C777.3 301 731.7 301 686 301C640.3 301 594.7 301 548.8 301C503 301 457 301 411.2 301C365.3 301 319.7 301 274 301C228.3 301 182.7 301 137 301C91.3 301 45.7 301 22.8 301L0 301Z"
        fill="#0ace2d"></path>
    <path
        d="M0 244L22.8 243.7C45.7 243.3 91.3 242.7 137 247.2C182.7 251.7 228.3 261.3 274 262C319.7 262.7 365.3 254.3 411.2 252.2C457 250 503 254 548.8 257.7C594.7 261.3 640.3 264.7 686 264C731.7 263.3 777.3 258.7 823 256C868.7 253.3 914.3 252.7 937.2 252.3L960 252L960 301L937.2 301C914.3 301 868.7 301 823 301C777.3 301 731.7 301 686 301C640.3 301 594.7 301 548.8 301C503 301 457 301 411.2 301C365.3 301 319.7 301 274 301C228.3 301 182.7 301 137 301C91.3 301 45.7 301 22.8 301L0 301Z"
        fill="#0eb72a"></path>
</svg>