<svg id="visual" viewBox="0 0 960 300" width="960" height="300" xmlns="http://www.w3.org/2000/svg"
    xmlns:xlink="http://www.w3.org/1999/xlink" version="1.1">
    <path
        d="M0 172L22.8 169.8C45.7 167.7 91.3 163.3 137 162.3C182.7 161.3 228.3 163.7 274 165.5C319.7 167.3 365.3 168.7 411.2 169C457 169.3 503 168.7 548.8 167.7C594.7 166.7 640.3 165.3 686 160.3C731.7 155.3 777.3 146.7 823 147.8C868.7 149 914.3 160 937.2 165.5L960 171L960 0L937.2 0C914.3 0 868.7 0 823 0C777.3 0 731.7 0 686 0C640.3 0 594.7 0 548.8 0C503 0 457 0 411.2 0C365.3 0 319.7 0 274 0C228.3 0 182.7 0 137 0C91.3 0 45.7 0 22.8 0L0 0Z"
        fill="#0bff1e"></path>
    <path
        d="M0 174L22.8 165.8C45.7 157.7 91.3 141.3 137 134.7C182.7 128 228.3 131 274 136.7C319.7 142.3 365.3 150.7 411.2 148C457 145.3 503 131.7 548.8 130.8C594.7 130 640.3 142 686 148.2C731.7 154.3 777.3 154.7 823 152.8C868.7 151 914.3 147 937.2 145L960 143L960 0L937.2 0C914.3 0 868.7 0 823 0C777.3 0 731.7 0 686 0C640.3 0 594.7 0 548.8 0C503 0 457 0 411.2 0C365.3 0 319.7 0 274 0C228.3 0 182.7 0 137 0C91.3 0 45.7 0 22.8 0L0 0Z"
        fill="#09f522"></path>
    <path
        d="M0 128L22.8 127.2C45.7 126.3 91.3 124.7 137 122C182.7 119.3 228.3 115.7 274 115.7C319.7 115.7 365.3 119.3 411.2 117.5C457 115.7 503 108.3 548.8 112.5C594.7 116.7 640.3 132.3 686 133.7C731.7 135 777.3 122 823 113.7C868.7 105.3 914.3 101.7 937.2 99.8L960 98L960 0L937.2 0C914.3 0 868.7 0 823 0C777.3 0 731.7 0 686 0C640.3 0 594.7 0 548.8 0C503 0 457 0 411.2 0C365.3 0 319.7 0 274 0C228.3 0 182.7 0 137 0C91.3 0 45.7 0 22.8 0L0 0Z"
        fill="#08ea24"></path>
    <path
        d="M0 85L22.8 86.8C45.7 88.7 91.3 92.3 137 97.2C182.7 102 228.3 108 274 106.2C319.7 104.3 365.3 94.7 411.2 95C457 95.3 503 105.7 548.8 109.2C594.7 112.7 640.3 109.3 686 111C731.7 112.7 777.3 119.3 823 116.7C868.7 114 914.3 102 937.2 96L960 90L960 0L937.2 0C914.3 0 868.7 0 823 0C777.3 0 731.7 0 686 0C640.3 0 594.7 0 548.8 0C503 0 457 0 411.2 0C365.3 0 319.7 0 274 0C228.3 0 182.7 0 137 0C91.3 0 45.7 0 22.8 0L0 0Z"
        fill="#08e026"></path>
    <path
        d="M0 90L22.8 88.3C45.7 86.7 91.3 83.3 137 79.8C182.7 76.3 228.3 72.7 274 71.8C319.7 71 365.3 73 411.2 79.2C457 85.3 503 95.7 548.8 99C594.7 102.3 640.3 98.7 686 93C731.7 87.3 777.3 79.7 823 78.2C868.7 76.7 914.3 81.3 937.2 83.7L960 86L960 0L937.2 0C914.3 0 868.7 0 823 0C777.3 0 731.7 0 686 0C640.3 0 594.7 0 548.8 0C503 0 457 0 411.2 0C365.3 0 319.7 0 274 0C228.3 0 182.7 0 137 0C91.3 0 45.7 0 22.8 0L0 0Z"
        fill="#09d628"></path>
    <path
        d="M0 57L22.8 56.3C45.7 55.7 91.3 54.3 137 57.5C182.7 60.7 228.3 68.3 274 71.2C319.7 74 365.3 72 411.2 68.7C457 65.3 503 60.7 548.8 62.8C594.7 65 640.3 74 686 76.8C731.7 79.7 777.3 76.3 823 73.3C868.7 70.3 914.3 67.7 937.2 66.3L960 65L960 0L937.2 0C914.3 0 868.7 0 823 0C777.3 0 731.7 0 686 0C640.3 0 594.7 0 548.8 0C503 0 457 0 411.2 0C365.3 0 319.7 0 274 0C228.3 0 182.7 0 137 0C91.3 0 45.7 0 22.8 0L0 0Z"
        fill="#0acb29"></path>
    <path
        d="M0 61L22.8 57.2C45.7 53.3 91.3 45.7 137 41.7C182.7 37.7 228.3 37.3 274 41C319.7 44.7 365.3 52.3 411.2 52.3C457 52.3 503 44.7 548.8 44C594.7 43.3 640.3 49.7 686 51.2C731.7 52.7 777.3 49.3 823 48.7C868.7 48 914.3 50 937.2 51L960 52L960 0L937.2 0C914.3 0 868.7 0 823 0C777.3 0 731.7 0 686 0C640.3 0 594.7 0 548.8 0C503 0 457 0 411.2 0C365.3 0 319.7 0 274 0C228.3 0 182.7 0 137 0C91.3 0 45.7 0 22.8 0L0 0Z"
        fill="#0cc12a"></path>
    <path
        d="M0 29L22.8 30.3C45.7 31.7 91.3 34.3 137 35.5C182.7 36.7 228.3 36.3 274 34.7C319.7 33 365.3 30 411.2 30.2C457 30.3 503 33.7 548.8 35.2C594.7 36.7 640.3 36.3 686 36.5C731.7 36.7 777.3 37.3 823 35.3C868.7 33.3 914.3 28.7 937.2 26.3L960 24L960 0L937.2 0C914.3 0 868.7 0 823 0C777.3 0 731.7 0 686 0C640.3 0 594.7 0 548.8 0C503 0 457 0 411.2 0C365.3 0 319.7 0 274 0C228.3 0 182.7 0 137 0C91.3 0 45.7 0 22.8 0L0 0Z"
        fill="#0eb72a"></path>
</svg>