<svg id="visual" viewBox="0 0 960 300" width="960" height="300" xmlns="http://www.w3.org/2000/svg" xmlns:xlink="http://www.w3.org/1999/xlink" version="1.1"><path d="M0 96L22.8 95.7C45.7 95.3 91.3 94.7 137 92.2C182.7 89.7 228.3 85.3 274 89.8C319.7 94.3 365.3 107.7 411.2 106.7C457 105.7 503 90.3 548.8 85.8C594.7 81.3 640.3 87.7 686 94.3C731.7 101 777.3 108 823 104.7C868.7 101.3 914.3 87.7 937.2 80.8L960 74L960 0L937.2 0C914.3 0 868.7 0 823 0C777.3 0 731.7 0 686 0C640.3 0 594.7 0 548.8 0C503 0 457 0 411.2 0C365.3 0 319.7 0 274 0C228.3 0 182.7 0 137 0C91.3 0 45.7 0 22.8 0L0 0Z" fill="#00ff33"></path><path d="M0 71L22.8 73.3C45.7 75.7 91.3 80.3 137 81.2C182.7 82 228.3 79 274 81.7C319.7 84.3 365.3 92.7 411.2 90.5C457 88.3 503 75.7 548.8 72.7C594.7 69.7 640.3 76.3 686 79.2C731.7 82 777.3 81 823 80.5C868.7 80 914.3 80 937.2 80L960 80L960 0L937.2 0C914.3 0 868.7 0 823 0C777.3 0 731.7 0 686 0C640.3 0 594.7 0 548.8 0C503 0 457 0 411.2 0C365.3 0 319.7 0 274 0C228.3 0 182.7 0 137 0C91.3 0 45.7 0 22.8 0L0 0Z" fill="#04ec31"></path><path d="M0 65L22.8 61.8C45.7 58.7 91.3 52.3 137 51.7C182.7 51 228.3 56 274 60C319.7 64 365.3 67 411.2 64.5C457 62 503 54 548.8 53.8C594.7 53.7 640.3 61.3 686 65.8C731.7 70.3 777.3 71.7 823 72.7C868.7 73.7 914.3 74.3 937.2 74.7L960 75L960 0L937.2 0C914.3 0 868.7 0 823 0C777.3 0 731.7 0 686 0C640.3 0 594.7 0 548.8 0C503 0 457 0 411.2 0C365.3 0 319.7 0 274 0C228.3 0 182.7 0 137 0C91.3 0 45.7 0 22.8 0L0 0Z" fill="#08da2f"></path><path d="M0 39L22.8 41C45.7 43 91.3 47 137 45.5C182.7 44 228.3 37 274 33.7C319.7 30.3 365.3 30.7 411.2 32.7C457 34.7 503 38.3 548.8 39C594.7 39.7 640.3 37.3 686 36C731.7 34.7 777.3 34.3 823 37.3C868.7 40.3 914.3 46.7 937.2 49.8L960 53L960 0L937.2 0C914.3 0 868.7 0 823 0C777.3 0 731.7 0 686 0C640.3 0 594.7 0 548.8 0C503 0 457 0 411.2 0C365.3 0 319.7 0 274 0C228.3 0 182.7 0 137 0C91.3 0 45.7 0 22.8 0L0 0Z" fill="#0bc82d"></path><path d="M0 29L22.8 29.3C45.7 29.7 91.3 30.3 137 30C182.7 29.7 228.3 28.3 274 26.7C319.7 25 365.3 23 411.2 21.7C457 20.3 503 19.7 548.8 22.2C594.7 24.7 640.3 30.3 686 30.2C731.7 30 777.3 24 823 20.7C868.7 17.3 914.3 16.7 937.2 16.3L960 16L960 0L937.2 0C914.3 0 868.7 0 823 0C777.3 0 731.7 0 686 0C640.3 0 594.7 0 548.8 0C503 0 457 0 411.2 0C365.3 0 319.7 0 274 0C228.3 0 182.7 0 137 0C91.3 0 45.7 0 22.8 0L0 0Z" fill="#0eb72a"></path></svg>